<?xml version="1.0" encoding="utf-8" standalone="no"?>
<!DOCTYPE svg PUBLIC "-//W3C//DTD SVG 1.1//EN"
  "http://www.w3.org/Graphics/SVG/1.1/DTD/svg11.dtd">
<!-- Created with matplotlib (http://matplotlib.org/) -->
<svg height="864pt" version="1.1" viewBox="0 0 921 864" width="921pt" xmlns="http://www.w3.org/2000/svg" xmlns:xlink="http://www.w3.org/1999/xlink">
 <defs>
  <style type="text/css">
*{stroke-linecap:butt;stroke-linejoin:round;}
  </style>
 </defs>
 <g id="figure_1">
  <g id="patch_1">
   <path d="M 0 864 
L 921.6 864 
L 921.6 0 
L 0 0 
z
" style="fill:#ffffff;"/>
  </g>
  <g id="patch_2">
   <path d="M 115.2 406.08 
L 462.116571 406.08 
L 462.116571 103.68 
L 115.2 103.68 
z
" style="fill:#ffffff;"/>
  </g>
  <g id="pane3d_1">
   <g id="patch_3">
    <path d="M 161.189152 339.260257 
L 260.47849 265.118629 
L 258.825428 123.446147 
L 154.000059 190.060875 
" style="fill:#f2f2f2;opacity:0.5;stroke:#f2f2f2;stroke-linejoin:miter;"/>
   </g>
  </g>
  <g id="pane3d_2">
   <g id="patch_4">
    <path d="M 260.47849 265.118629 
L 421.317883 306.568584 
L 428.04721 160.624025 
L 258.825428 123.446147 
" style="fill:#e6e6e6;opacity:0.5;stroke:#e6e6e6;stroke-linejoin:miter;"/>
   </g>
  </g>
  <g id="pane3d_3">
   <g id="patch_5">
    <path d="M 161.189152 339.260257 
L 330.413926 387.535483 
L 421.317883 306.568584 
L 260.47849 265.118629 
" style="fill:#ececec;opacity:0.5;stroke:#ececec;stroke-linejoin:miter;"/>
   </g>
  </g>
  <g id="axis3d_1">
   <g id="line2d_1">
    <path d="M 161.189152 339.260257 
L 330.413926 387.535483 
" style="fill:none;stroke:#000000;stroke-linecap:square;stroke-width:0.8;"/>
   </g>
   <g id="text_1">
    <!-- wrist angle -->
    <defs>
     <path d="M 4.203125 54.6875 
L 13.1875 54.6875 
L 24.421875 12.015625 
L 35.59375 54.6875 
L 46.1875 54.6875 
L 57.421875 12.015625 
L 68.609375 54.6875 
L 77.59375 54.6875 
L 63.28125 0 
L 52.6875 0 
L 40.921875 44.828125 
L 29.109375 0 
L 18.5 0 
z
" id="DejaVuSans-77"/>
     <path d="M 41.109375 46.296875 
Q 39.59375 47.171875 37.8125 47.578125 
Q 36.03125 48 33.890625 48 
Q 26.265625 48 22.1875 43.046875 
Q 18.109375 38.09375 18.109375 28.8125 
L 18.109375 0 
L 9.078125 0 
L 9.078125 54.6875 
L 18.109375 54.6875 
L 18.109375 46.1875 
Q 20.953125 51.171875 25.484375 53.578125 
Q 30.03125 56 36.53125 56 
Q 37.453125 56 38.578125 55.875 
Q 39.703125 55.765625 41.0625 55.515625 
z
" id="DejaVuSans-72"/>
     <path d="M 9.421875 54.6875 
L 18.40625 54.6875 
L 18.40625 0 
L 9.421875 0 
z
M 9.421875 75.984375 
L 18.40625 75.984375 
L 18.40625 64.59375 
L 9.421875 64.59375 
z
" id="DejaVuSans-69"/>
     <path d="M 44.28125 53.078125 
L 44.28125 44.578125 
Q 40.484375 46.53125 36.375 47.5 
Q 32.28125 48.484375 27.875 48.484375 
Q 21.1875 48.484375 17.84375 46.4375 
Q 14.5 44.390625 14.5 40.28125 
Q 14.5 37.15625 16.890625 35.375 
Q 19.28125 33.59375 26.515625 31.984375 
L 29.59375 31.296875 
Q 39.15625 29.25 43.1875 25.515625 
Q 47.21875 21.78125 47.21875 15.09375 
Q 47.21875 7.46875 41.1875 3.015625 
Q 35.15625 -1.421875 24.609375 -1.421875 
Q 20.21875 -1.421875 15.453125 -0.5625 
Q 10.6875 0.296875 5.421875 2 
L 5.421875 11.28125 
Q 10.40625 8.6875 15.234375 7.390625 
Q 20.0625 6.109375 24.8125 6.109375 
Q 31.15625 6.109375 34.5625 8.28125 
Q 37.984375 10.453125 37.984375 14.40625 
Q 37.984375 18.0625 35.515625 20.015625 
Q 33.0625 21.96875 24.703125 23.78125 
L 21.578125 24.515625 
Q 13.234375 26.265625 9.515625 29.90625 
Q 5.8125 33.546875 5.8125 39.890625 
Q 5.8125 47.609375 11.28125 51.796875 
Q 16.75 56 26.8125 56 
Q 31.78125 56 36.171875 55.265625 
Q 40.578125 54.546875 44.28125 53.078125 
z
" id="DejaVuSans-73"/>
     <path d="M 18.3125 70.21875 
L 18.3125 54.6875 
L 36.8125 54.6875 
L 36.8125 47.703125 
L 18.3125 47.703125 
L 18.3125 18.015625 
Q 18.3125 11.328125 20.140625 9.421875 
Q 21.96875 7.515625 27.59375 7.515625 
L 36.8125 7.515625 
L 36.8125 0 
L 27.59375 0 
Q 17.1875 0 13.234375 3.875 
Q 9.28125 7.765625 9.28125 18.015625 
L 9.28125 47.703125 
L 2.6875 47.703125 
L 2.6875 54.6875 
L 9.28125 54.6875 
L 9.28125 70.21875 
z
" id="DejaVuSans-74"/>
     <path id="DejaVuSans-20"/>
     <path d="M 34.28125 27.484375 
Q 23.390625 27.484375 19.1875 25 
Q 14.984375 22.515625 14.984375 16.5 
Q 14.984375 11.71875 18.140625 8.90625 
Q 21.296875 6.109375 26.703125 6.109375 
Q 34.1875 6.109375 38.703125 11.40625 
Q 43.21875 16.703125 43.21875 25.484375 
L 43.21875 27.484375 
z
M 52.203125 31.203125 
L 52.203125 0 
L 43.21875 0 
L 43.21875 8.296875 
Q 40.140625 3.328125 35.546875 0.953125 
Q 30.953125 -1.421875 24.3125 -1.421875 
Q 15.921875 -1.421875 10.953125 3.296875 
Q 6 8.015625 6 15.921875 
Q 6 25.140625 12.171875 29.828125 
Q 18.359375 34.515625 30.609375 34.515625 
L 43.21875 34.515625 
L 43.21875 35.40625 
Q 43.21875 41.609375 39.140625 45 
Q 35.0625 48.390625 27.6875 48.390625 
Q 23 48.390625 18.546875 47.265625 
Q 14.109375 46.140625 10.015625 43.890625 
L 10.015625 52.203125 
Q 14.9375 54.109375 19.578125 55.046875 
Q 24.21875 56 28.609375 56 
Q 40.484375 56 46.34375 49.84375 
Q 52.203125 43.703125 52.203125 31.203125 
z
" id="DejaVuSans-61"/>
     <path d="M 54.890625 33.015625 
L 54.890625 0 
L 45.90625 0 
L 45.90625 32.71875 
Q 45.90625 40.484375 42.875 44.328125 
Q 39.84375 48.1875 33.796875 48.1875 
Q 26.515625 48.1875 22.3125 43.546875 
Q 18.109375 38.921875 18.109375 30.90625 
L 18.109375 0 
L 9.078125 0 
L 9.078125 54.6875 
L 18.109375 54.6875 
L 18.109375 46.1875 
Q 21.34375 51.125 25.703125 53.5625 
Q 30.078125 56 35.796875 56 
Q 45.21875 56 50.046875 50.171875 
Q 54.890625 44.34375 54.890625 33.015625 
z
" id="DejaVuSans-6e"/>
     <path d="M 45.40625 27.984375 
Q 45.40625 37.75 41.375 43.109375 
Q 37.359375 48.484375 30.078125 48.484375 
Q 22.859375 48.484375 18.828125 43.109375 
Q 14.796875 37.75 14.796875 27.984375 
Q 14.796875 18.265625 18.828125 12.890625 
Q 22.859375 7.515625 30.078125 7.515625 
Q 37.359375 7.515625 41.375 12.890625 
Q 45.40625 18.265625 45.40625 27.984375 
z
M 54.390625 6.78125 
Q 54.390625 -7.171875 48.1875 -13.984375 
Q 42 -20.796875 29.203125 -20.796875 
Q 24.46875 -20.796875 20.265625 -20.09375 
Q 16.0625 -19.390625 12.109375 -17.921875 
L 12.109375 -9.1875 
Q 16.0625 -11.328125 19.921875 -12.34375 
Q 23.78125 -13.375 27.78125 -13.375 
Q 36.625 -13.375 41.015625 -8.765625 
Q 45.40625 -4.15625 45.40625 5.171875 
L 45.40625 9.625 
Q 42.625 4.78125 38.28125 2.390625 
Q 33.9375 0 27.875 0 
Q 17.828125 0 11.671875 7.65625 
Q 5.515625 15.328125 5.515625 27.984375 
Q 5.515625 40.671875 11.671875 48.328125 
Q 17.828125 56 27.875 56 
Q 33.9375 56 38.28125 53.609375 
Q 42.625 51.21875 45.40625 46.390625 
L 45.40625 54.6875 
L 54.390625 54.6875 
z
" id="DejaVuSans-67"/>
     <path d="M 9.421875 75.984375 
L 18.40625 75.984375 
L 18.40625 0 
L 9.421875 0 
z
" id="DejaVuSans-6c"/>
     <path d="M 56.203125 29.59375 
L 56.203125 25.203125 
L 14.890625 25.203125 
Q 15.484375 15.921875 20.484375 11.0625 
Q 25.484375 6.203125 34.421875 6.203125 
Q 39.59375 6.203125 44.453125 7.46875 
Q 49.3125 8.734375 54.109375 11.28125 
L 54.109375 2.78125 
Q 49.265625 0.734375 44.1875 -0.34375 
Q 39.109375 -1.421875 33.890625 -1.421875 
Q 20.796875 -1.421875 13.15625 6.1875 
Q 5.515625 13.8125 5.515625 26.8125 
Q 5.515625 40.234375 12.765625 48.109375 
Q 20.015625 56 32.328125 56 
Q 43.359375 56 49.78125 48.890625 
Q 56.203125 41.796875 56.203125 29.59375 
z
M 47.21875 32.234375 
Q 47.125 39.59375 43.09375 43.984375 
Q 39.0625 48.390625 32.421875 48.390625 
Q 24.90625 48.390625 20.390625 44.140625 
Q 15.875 39.890625 15.1875 32.171875 
z
" id="DejaVuSans-65"/>
    </defs>
    <g transform="translate(167.328018 416.230214)rotate(-344.077993)scale(0.18 -0.18)">
     <use xlink:href="#DejaVuSans-77"/>
     <use x="81.787109" xlink:href="#DejaVuSans-72"/>
     <use x="122.900391" xlink:href="#DejaVuSans-69"/>
     <use x="150.683594" xlink:href="#DejaVuSans-73"/>
     <use x="202.783203" xlink:href="#DejaVuSans-74"/>
     <use x="241.992188" xlink:href="#DejaVuSans-20"/>
     <use x="273.779297" xlink:href="#DejaVuSans-61"/>
     <use x="335.058594" xlink:href="#DejaVuSans-6e"/>
     <use x="398.4375" xlink:href="#DejaVuSans-67"/>
     <use x="461.914062" xlink:href="#DejaVuSans-6c"/>
     <use x="489.697266" xlink:href="#DejaVuSans-65"/>
    </g>
   </g>
   <g id="Line3DCollection_1">
    <path d="M 171.506188 342.203427 
L 270.315225 267.653656 
L 269.153674 125.715253 
" style="fill:none;stroke:#b0b0b0;stroke-width:0.8;"/>
    <path d="M 199.687927 350.242911 
L 297.16447 274.572981 
L 297.35849 131.911827 
" style="fill:none;stroke:#b0b0b0;stroke-width:0.8;"/>
    <path d="M 229.379558 358.713126 
L 325.419759 281.854658 
L 327.062487 138.437769 
" style="fill:none;stroke:#b0b0b0;stroke-width:0.8;"/>
    <path d="M 258.471022 367.012129 
L 353.071671 288.980838 
L 356.154186 144.82919 
" style="fill:none;stroke:#b0b0b0;stroke-width:0.8;"/>
    <path d="M 289.128916 375.757993 
L 382.178024 296.481842 
L 386.799607 151.561962 
" style="fill:none;stroke:#b0b0b0;stroke-width:0.8;"/>
    <path d="M 319.174876 384.329288 
L 410.669144 303.824295 
L 416.820685 158.157567 
" style="fill:none;stroke:#b0b0b0;stroke-width:0.8;"/>
   </g>
   <g id="xtick_1">
    <g id="line2d_2">
     <path d="M 172.357478 341.561142 
L 169.800431 343.490392 
" style="fill:none;stroke:#000000;stroke-linecap:square;stroke-width:0.8;"/>
    </g>
    <g id="text_2">
     <!-- -0.97 -->
     <defs>
      <path d="M 4.890625 31.390625 
L 31.203125 31.390625 
L 31.203125 23.390625 
L 4.890625 23.390625 
z
" id="DejaVuSans-2d"/>
      <path d="M 31.78125 66.40625 
Q 24.171875 66.40625 20.328125 58.90625 
Q 16.5 51.421875 16.5 36.375 
Q 16.5 21.390625 20.328125 13.890625 
Q 24.171875 6.390625 31.78125 6.390625 
Q 39.453125 6.390625 43.28125 13.890625 
Q 47.125 21.390625 47.125 36.375 
Q 47.125 51.421875 43.28125 58.90625 
Q 39.453125 66.40625 31.78125 66.40625 
z
M 31.78125 74.21875 
Q 44.046875 74.21875 50.515625 64.515625 
Q 56.984375 54.828125 56.984375 36.375 
Q 56.984375 17.96875 50.515625 8.265625 
Q 44.046875 -1.421875 31.78125 -1.421875 
Q 19.53125 -1.421875 13.0625 8.265625 
Q 6.59375 17.96875 6.59375 36.375 
Q 6.59375 54.828125 13.0625 64.515625 
Q 19.53125 74.21875 31.78125 74.21875 
z
" id="DejaVuSans-30"/>
      <path d="M 10.6875 12.40625 
L 21 12.40625 
L 21 0 
L 10.6875 0 
z
" id="DejaVuSans-2e"/>
      <path d="M 10.984375 1.515625 
L 10.984375 10.5 
Q 14.703125 8.734375 18.5 7.8125 
Q 22.3125 6.890625 25.984375 6.890625 
Q 35.75 6.890625 40.890625 13.453125 
Q 46.046875 20.015625 46.78125 33.40625 
Q 43.953125 29.203125 39.59375 26.953125 
Q 35.25 24.703125 29.984375 24.703125 
Q 19.046875 24.703125 12.671875 31.3125 
Q 6.296875 37.9375 6.296875 49.421875 
Q 6.296875 60.640625 12.9375 67.421875 
Q 19.578125 74.21875 30.609375 74.21875 
Q 43.265625 74.21875 49.921875 64.515625 
Q 56.59375 54.828125 56.59375 36.375 
Q 56.59375 19.140625 48.40625 8.859375 
Q 40.234375 -1.421875 26.421875 -1.421875 
Q 22.703125 -1.421875 18.890625 -0.6875 
Q 15.09375 0.046875 10.984375 1.515625 
z
M 30.609375 32.421875 
Q 37.25 32.421875 41.125 36.953125 
Q 45.015625 41.5 45.015625 49.421875 
Q 45.015625 57.28125 41.125 61.84375 
Q 37.25 66.40625 30.609375 66.40625 
Q 23.96875 66.40625 20.09375 61.84375 
Q 16.21875 57.28125 16.21875 49.421875 
Q 16.21875 41.5 20.09375 36.953125 
Q 23.96875 32.421875 30.609375 32.421875 
z
" id="DejaVuSans-39"/>
      <path d="M 8.203125 72.90625 
L 55.078125 72.90625 
L 55.078125 68.703125 
L 28.609375 0 
L 18.3125 0 
L 43.21875 64.59375 
L 8.203125 64.59375 
z
" id="DejaVuSans-37"/>
     </defs>
     <g transform="translate(154.226158 389.651922)rotate(-41)scale(0.18 -0.18)">
      <use xlink:href="#DejaVuSans-2d"/>
      <use x="36.083984" xlink:href="#DejaVuSans-30"/>
      <use x="99.707031" xlink:href="#DejaVuSans-2e"/>
      <use x="131.494141" xlink:href="#DejaVuSans-39"/>
      <use x="195.117188" xlink:href="#DejaVuSans-37"/>
     </g>
    </g>
   </g>
   <g id="xtick_2">
    <g id="line2d_3">
     <path d="M 200.528204 349.590614 
L 198.004216 351.549956 
" style="fill:none;stroke:#000000;stroke-linecap:square;stroke-width:0.8;"/>
    </g>
    <g id="text_3">
     <!-- -0.7 -->
     <g transform="translate(186.728254 390.235174)rotate(-41)scale(0.18 -0.18)">
      <use xlink:href="#DejaVuSans-2d"/>
      <use x="36.083984" xlink:href="#DejaVuSans-30"/>
      <use x="99.707031" xlink:href="#DejaVuSans-2e"/>
      <use x="131.494141" xlink:href="#DejaVuSans-37"/>
     </g>
    </g>
   </g>
   <g id="xtick_3">
    <g id="line2d_4">
     <path d="M 230.207936 358.050196 
L 227.719663 360.041496 
" style="fill:none;stroke:#000000;stroke-linecap:square;stroke-width:0.8;"/>
    </g>
    <g id="text_4">
     <!-- -0.42 -->
     <defs>
      <path d="M 37.796875 64.3125 
L 12.890625 25.390625 
L 37.796875 25.390625 
z
M 35.203125 72.90625 
L 47.609375 72.90625 
L 47.609375 25.390625 
L 58.015625 25.390625 
L 58.015625 17.1875 
L 47.609375 17.1875 
L 47.609375 0 
L 37.796875 0 
L 37.796875 17.1875 
L 4.890625 17.1875 
L 4.890625 26.703125 
z
" id="DejaVuSans-34"/>
      <path d="M 19.1875 8.296875 
L 53.609375 8.296875 
L 53.609375 0 
L 7.328125 0 
L 7.328125 8.296875 
Q 12.9375 14.109375 22.625 23.890625 
Q 32.328125 33.6875 34.8125 36.53125 
Q 39.546875 41.84375 41.421875 45.53125 
Q 43.3125 49.21875 43.3125 52.78125 
Q 43.3125 58.59375 39.234375 62.25 
Q 35.15625 65.921875 28.609375 65.921875 
Q 23.96875 65.921875 18.8125 64.3125 
Q 13.671875 62.703125 7.8125 59.421875 
L 7.8125 69.390625 
Q 13.765625 71.78125 18.9375 73 
Q 24.125 74.21875 28.421875 74.21875 
Q 39.75 74.21875 46.484375 68.546875 
Q 53.21875 62.890625 53.21875 53.421875 
Q 53.21875 48.921875 51.53125 44.890625 
Q 49.859375 40.875 45.40625 35.40625 
Q 44.1875 33.984375 37.640625 27.21875 
Q 31.109375 20.453125 19.1875 8.296875 
z
" id="DejaVuSans-32"/>
     </defs>
     <g transform="translate(212.097224 406.279363)rotate(-41)scale(0.18 -0.18)">
      <use xlink:href="#DejaVuSans-2d"/>
      <use x="36.083984" xlink:href="#DejaVuSans-30"/>
      <use x="99.707031" xlink:href="#DejaVuSans-2e"/>
      <use x="131.494141" xlink:href="#DejaVuSans-34"/>
      <use x="195.117188" xlink:href="#DejaVuSans-32"/>
     </g>
    </g>
   </g>
   <g id="xtick_4">
    <g id="line2d_5">
     <path d="M 259.28745 366.338699 
L 256.835048 368.361561 
" style="fill:none;stroke:#000000;stroke-linecap:square;stroke-width:0.8;"/>
    </g>
    <g id="text_5">
     <!-- -0.15 -->
     <defs>
      <path d="M 12.40625 8.296875 
L 28.515625 8.296875 
L 28.515625 63.921875 
L 10.984375 60.40625 
L 10.984375 69.390625 
L 28.421875 72.90625 
L 38.28125 72.90625 
L 38.28125 8.296875 
L 54.390625 8.296875 
L 54.390625 0 
L 12.40625 0 
z
" id="DejaVuSans-31"/>
      <path d="M 10.796875 72.90625 
L 49.515625 72.90625 
L 49.515625 64.59375 
L 19.828125 64.59375 
L 19.828125 46.734375 
Q 21.96875 47.46875 24.109375 47.828125 
Q 26.265625 48.1875 28.421875 48.1875 
Q 40.625 48.1875 47.75 41.5 
Q 54.890625 34.8125 54.890625 23.390625 
Q 54.890625 11.625 47.5625 5.09375 
Q 40.234375 -1.421875 26.90625 -1.421875 
Q 22.3125 -1.421875 17.546875 -0.640625 
Q 12.796875 0.140625 7.71875 1.703125 
L 7.71875 11.625 
Q 12.109375 9.234375 16.796875 8.0625 
Q 21.484375 6.890625 26.703125 6.890625 
Q 35.15625 6.890625 40.078125 11.328125 
Q 45.015625 15.765625 45.015625 23.390625 
Q 45.015625 31 40.078125 35.4375 
Q 35.15625 39.890625 26.703125 39.890625 
Q 22.75 39.890625 18.8125 39.015625 
Q 14.890625 38.140625 10.796875 36.28125 
z
" id="DejaVuSans-35"/>
     </defs>
     <g transform="translate(241.188063 414.637705)rotate(-41)scale(0.18 -0.18)">
      <use xlink:href="#DejaVuSans-2d"/>
      <use x="36.083984" xlink:href="#DejaVuSans-30"/>
      <use x="99.707031" xlink:href="#DejaVuSans-2e"/>
      <use x="131.494141" xlink:href="#DejaVuSans-31"/>
      <use x="195.117188" xlink:href="#DejaVuSans-35"/>
     </g>
    </g>
   </g>
   <g id="xtick_5">
    <g id="line2d_6">
     <path d="M 289.932438 375.073407 
L 287.518779 377.1298 
" style="fill:none;stroke:#000000;stroke-linecap:square;stroke-width:0.8;"/>
    </g>
    <g id="text_6">
     <!-- 0.13 -->
     <defs>
      <path d="M 40.578125 39.3125 
Q 47.65625 37.796875 51.625 33 
Q 55.609375 28.21875 55.609375 21.1875 
Q 55.609375 10.40625 48.1875 4.484375 
Q 40.765625 -1.421875 27.09375 -1.421875 
Q 22.515625 -1.421875 17.65625 -0.515625 
Q 12.796875 0.390625 7.625 2.203125 
L 7.625 11.71875 
Q 11.71875 9.328125 16.59375 8.109375 
Q 21.484375 6.890625 26.8125 6.890625 
Q 36.078125 6.890625 40.9375 10.546875 
Q 45.796875 14.203125 45.796875 21.1875 
Q 45.796875 27.640625 41.28125 31.265625 
Q 36.765625 34.90625 28.71875 34.90625 
L 20.21875 34.90625 
L 20.21875 43.015625 
L 29.109375 43.015625 
Q 36.375 43.015625 40.234375 45.921875 
Q 44.09375 48.828125 44.09375 54.296875 
Q 44.09375 59.90625 40.109375 62.90625 
Q 36.140625 65.921875 28.71875 65.921875 
Q 24.65625 65.921875 20.015625 65.03125 
Q 15.375 64.15625 9.8125 62.3125 
L 9.8125 71.09375 
Q 15.4375 72.65625 20.34375 73.4375 
Q 25.25 74.21875 29.59375 74.21875 
Q 40.828125 74.21875 47.359375 69.109375 
Q 53.90625 64.015625 53.90625 55.328125 
Q 53.90625 49.265625 50.4375 45.09375 
Q 46.96875 40.921875 40.578125 39.3125 
z
" id="DejaVuSans-33"/>
     </defs>
     <g transform="translate(274.29625 419.185725)rotate(-41)scale(0.18 -0.18)">
      <use xlink:href="#DejaVuSans-30"/>
      <use x="63.623047" xlink:href="#DejaVuSans-2e"/>
      <use x="95.410156" xlink:href="#DejaVuSans-31"/>
      <use x="159.033203" xlink:href="#DejaVuSans-33"/>
     </g>
    </g>
   </g>
   <g id="xtick_6">
    <g id="line2d_7">
     <path d="M 319.965436 383.633681 
L 317.590686 385.723202 
" style="fill:none;stroke:#000000;stroke-linecap:square;stroke-width:0.8;"/>
    </g>
    <g id="text_7">
     <!-- 0.4 -->
     <g transform="translate(308.663984 420.30501)rotate(-41)scale(0.18 -0.18)">
      <use xlink:href="#DejaVuSans-30"/>
      <use x="63.623047" xlink:href="#DejaVuSans-2e"/>
      <use x="95.410156" xlink:href="#DejaVuSans-34"/>
     </g>
    </g>
   </g>
  </g>
  <g id="axis3d_2">
   <g id="line2d_8">
    <path d="M 421.317883 306.568584 
L 330.413926 387.535483 
" style="fill:none;stroke:#000000;stroke-linecap:square;stroke-width:0.8;"/>
   </g>
   <g id="text_8">
    <!-- right dx -->
    <defs>
     <path d="M 54.890625 33.015625 
L 54.890625 0 
L 45.90625 0 
L 45.90625 32.71875 
Q 45.90625 40.484375 42.875 44.328125 
Q 39.84375 48.1875 33.796875 48.1875 
Q 26.515625 48.1875 22.3125 43.546875 
Q 18.109375 38.921875 18.109375 30.90625 
L 18.109375 0 
L 9.078125 0 
L 9.078125 75.984375 
L 18.109375 75.984375 
L 18.109375 46.1875 
Q 21.34375 51.125 25.703125 53.5625 
Q 30.078125 56 35.796875 56 
Q 45.21875 56 50.046875 50.171875 
Q 54.890625 44.34375 54.890625 33.015625 
z
" id="DejaVuSans-68"/>
     <path d="M 45.40625 46.390625 
L 45.40625 75.984375 
L 54.390625 75.984375 
L 54.390625 0 
L 45.40625 0 
L 45.40625 8.203125 
Q 42.578125 3.328125 38.25 0.953125 
Q 33.9375 -1.421875 27.875 -1.421875 
Q 17.96875 -1.421875 11.734375 6.484375 
Q 5.515625 14.40625 5.515625 27.296875 
Q 5.515625 40.1875 11.734375 48.09375 
Q 17.96875 56 27.875 56 
Q 33.9375 56 38.25 53.625 
Q 42.578125 51.265625 45.40625 46.390625 
z
M 14.796875 27.296875 
Q 14.796875 17.390625 18.875 11.75 
Q 22.953125 6.109375 30.078125 6.109375 
Q 37.203125 6.109375 41.296875 11.75 
Q 45.40625 17.390625 45.40625 27.296875 
Q 45.40625 37.203125 41.296875 42.84375 
Q 37.203125 48.484375 30.078125 48.484375 
Q 22.953125 48.484375 18.875 42.84375 
Q 14.796875 37.203125 14.796875 27.296875 
z
" id="DejaVuSans-64"/>
     <path d="M 54.890625 54.6875 
L 35.109375 28.078125 
L 55.90625 0 
L 45.3125 0 
L 29.390625 21.484375 
L 13.484375 0 
L 2.875 0 
L 24.125 28.609375 
L 4.6875 54.6875 
L 15.28125 54.6875 
L 29.78125 35.203125 
L 44.28125 54.6875 
z
" id="DejaVuSans-78"/>
    </defs>
    <g transform="translate(390.480646 412.611508)rotate(-41.691014)scale(0.18 -0.18)">
     <use xlink:href="#DejaVuSans-72"/>
     <use x="41.113281" xlink:href="#DejaVuSans-69"/>
     <use x="68.896484" xlink:href="#DejaVuSans-67"/>
     <use x="132.373047" xlink:href="#DejaVuSans-68"/>
     <use x="195.751953" xlink:href="#DejaVuSans-74"/>
     <use x="234.960938" xlink:href="#DejaVuSans-20"/>
     <use x="266.748047" xlink:href="#DejaVuSans-64"/>
     <use x="330.224609" xlink:href="#DejaVuSans-78"/>
    </g>
   </g>
   <g id="Line3DCollection_2">
    <path d="M 161.177804 185.499541 
L 167.96317 334.201943 
L 336.63526 381.994227 
" style="fill:none;stroke:#b0b0b0;stroke-width:0.8;"/>
    <path d="M 194.897898 164.070998 
L 199.835009 310.402509 
L 365.868488 355.956594 
" style="fill:none;stroke:#b0b0b0;stroke-width:0.8;"/>
    <path d="M 221.76632 146.996575 
L 225.288001 291.396175 
L 389.169093 335.203066 
" style="fill:none;stroke:#b0b0b0;stroke-width:0.8;"/>
    <path d="M 252.628218 127.384368 
L 254.586992 269.517946 
L 415.940936 311.357756 
" style="fill:none;stroke:#b0b0b0;stroke-width:0.8;"/>
   </g>
   <g id="xtick_7">
    <g id="line2d_9">
     <path d="M 335.223623 381.594248 
L 339.461689 382.79508 
" style="fill:none;stroke:#000000;stroke-linecap:square;stroke-width:0.8;"/>
    </g>
    <g id="text_9">
     <!-- 0.0 -->
     <g transform="translate(329.763182 404.431733)rotate(-345)scale(0.18 -0.18)">
      <use xlink:href="#DejaVuSans-30"/>
      <use x="63.623047" xlink:href="#DejaVuSans-2e"/>
      <use x="95.410156" xlink:href="#DejaVuSans-30"/>
     </g>
    </g>
   </g>
   <g id="xtick_8">
    <g id="line2d_10">
     <path d="M 364.480418 355.575753 
L 368.647656 356.719105 
" style="fill:none;stroke:#000000;stroke-linecap:square;stroke-width:0.8;"/>
    </g>
    <g id="text_10">
     <!-- 0.06 -->
     <defs>
      <path d="M 33.015625 40.375 
Q 26.375 40.375 22.484375 35.828125 
Q 18.609375 31.296875 18.609375 23.390625 
Q 18.609375 15.53125 22.484375 10.953125 
Q 26.375 6.390625 33.015625 6.390625 
Q 39.65625 6.390625 43.53125 10.953125 
Q 47.40625 15.53125 47.40625 23.390625 
Q 47.40625 31.296875 43.53125 35.828125 
Q 39.65625 40.375 33.015625 40.375 
z
M 52.59375 71.296875 
L 52.59375 62.3125 
Q 48.875 64.0625 45.09375 64.984375 
Q 41.3125 65.921875 37.59375 65.921875 
Q 27.828125 65.921875 22.671875 59.328125 
Q 17.53125 52.734375 16.796875 39.40625 
Q 19.671875 43.65625 24.015625 45.921875 
Q 28.375 48.1875 33.59375 48.1875 
Q 44.578125 48.1875 50.953125 41.515625 
Q 57.328125 34.859375 57.328125 23.390625 
Q 57.328125 12.15625 50.6875 5.359375 
Q 44.046875 -1.421875 33.015625 -1.421875 
Q 20.359375 -1.421875 13.671875 8.265625 
Q 6.984375 17.96875 6.984375 36.375 
Q 6.984375 53.65625 15.1875 63.9375 
Q 23.390625 74.21875 37.203125 74.21875 
Q 40.921875 74.21875 44.703125 73.484375 
Q 48.484375 72.75 52.59375 71.296875 
z
" id="DejaVuSans-36"/>
     </defs>
     <g transform="translate(353.256074 378.179337)rotate(-345)scale(0.18 -0.18)">
      <use xlink:href="#DejaVuSans-30"/>
      <use x="63.623047" xlink:href="#DejaVuSans-2e"/>
      <use x="95.410156" xlink:href="#DejaVuSans-30"/>
      <use x="159.033203" xlink:href="#DejaVuSans-36"/>
     </g>
    </g>
   </g>
   <g id="xtick_9">
    <g id="line2d_11">
     <path d="M 387.800185 334.837145 
L 391.909836 335.935692 
" style="fill:none;stroke:#000000;stroke-linecap:square;stroke-width:0.8;"/>
    </g>
    <g id="text_11">
     <!-- 0.11 -->
     <g transform="translate(376.390275 357.254322)rotate(-345)scale(0.18 -0.18)">
      <use xlink:href="#DejaVuSans-30"/>
      <use x="63.623047" xlink:href="#DejaVuSans-2e"/>
      <use x="95.410156" xlink:href="#DejaVuSans-31"/>
      <use x="159.033203" xlink:href="#DejaVuSans-31"/>
     </g>
    </g>
   </g>
   <g id="xtick_10">
    <g id="line2d_12">
     <path d="M 414.594458 311.008608 
L 418.636704 312.056781 
" style="fill:none;stroke:#000000;stroke-linecap:square;stroke-width:0.8;"/>
    </g>
    <g id="text_12">
     <!-- 0.17 -->
     <g transform="translate(402.971297 333.211636)rotate(-345)scale(0.18 -0.18)">
      <use xlink:href="#DejaVuSans-30"/>
      <use x="63.623047" xlink:href="#DejaVuSans-2e"/>
      <use x="95.410156" xlink:href="#DejaVuSans-31"/>
      <use x="159.033203" xlink:href="#DejaVuSans-37"/>
     </g>
    </g>
   </g>
  </g>
  <g id="axis3d_3">
   <g id="line2d_13">
    <path d="M 421.317883 306.568584 
L 428.04721 160.624025 
" style="fill:none;stroke:#000000;stroke-linecap:square;stroke-width:0.8;"/>
   </g>
   <g id="text_13">
    <!-- [degrees] -->
    <defs>
     <path d="M 8.59375 75.984375 
L 29.296875 75.984375 
L 29.296875 69 
L 17.578125 69 
L 17.578125 -6.203125 
L 29.296875 -6.203125 
L 29.296875 -13.1875 
L 8.59375 -13.1875 
z
" id="DejaVuSans-5b"/>
     <path d="M 30.421875 75.984375 
L 30.421875 -13.1875 
L 9.71875 -13.1875 
L 9.71875 -6.203125 
L 21.390625 -6.203125 
L 21.390625 69 
L 9.71875 69 
L 9.71875 75.984375 
z
" id="DejaVuSans-5d"/>
    </defs>
    <g transform="translate(471.599789 273.953848)rotate(-87.360031)scale(0.18 -0.18)">
     <use xlink:href="#DejaVuSans-5b"/>
     <use x="39.013672" xlink:href="#DejaVuSans-64"/>
     <use x="102.490234" xlink:href="#DejaVuSans-65"/>
     <use x="164.013672" xlink:href="#DejaVuSans-67"/>
     <use x="227.490234" xlink:href="#DejaVuSans-72"/>
     <use x="268.572266" xlink:href="#DejaVuSans-65"/>
     <use x="330.095703" xlink:href="#DejaVuSans-65"/>
     <use x="391.619141" xlink:href="#DejaVuSans-73"/>
     <use x="443.71875" xlink:href="#DejaVuSans-5d"/>
    </g>
   </g>
   <g id="Line3DCollection_3">
    <path d="M 421.445873 303.79274 
L 260.446982 262.418275 
L 161.052648 336.427295 
" style="fill:none;stroke:#b0b0b0;stroke-width:0.8;"/>
    <path d="M 422.796865 274.492656 
L 260.11456 233.928673 
L 159.611243 306.512999 
" style="fill:none;stroke:#b0b0b0;stroke-width:0.8;"/>
    <path d="M 424.176656 244.567962 
L 259.775351 204.857464 
L 158.138083 275.93966 
" style="fill:none;stroke:#b0b0b0;stroke-width:0.8;"/>
    <path d="M 425.586179 213.998471 
L 259.429146 175.186655 
L 156.632106 244.685257 
" style="fill:none;stroke:#b0b0b0;stroke-width:0.8;"/>
    <path d="M 427.026403 182.763116 
L 259.075727 144.897501 
L 155.092203 212.726776 
" style="fill:none;stroke:#b0b0b0;stroke-width:0.8;"/>
   </g>
   <g id="xtick_11">
    <g id="line2d_14">
     <path d="M 420.102568 303.447529 
L 424.135279 304.483879 
" style="fill:none;stroke:#000000;stroke-linecap:square;stroke-width:0.8;"/>
    </g>
    <g id="text_14">
     <!-- 0 -->
     <g transform="translate(435.057059 315.046406)scale(0.18 -0.18)">
      <use xlink:href="#DejaVuSans-30"/>
     </g>
    </g>
   </g>
   <g id="xtick_12">
    <g id="line2d_15">
     <path d="M 421.438924 274.15406 
L 425.515601 275.170558 
" style="fill:none;stroke:#000000;stroke-linecap:square;stroke-width:0.8;"/>
    </g>
    <g id="text_15">
     <!-- 10 -->
     <g transform="translate(430.88192 285.792817)scale(0.18 -0.18)">
      <use xlink:href="#DejaVuSans-31"/>
      <use x="63.623047" xlink:href="#DejaVuSans-30"/>
     </g>
    </g>
   </g>
   <g id="xtick_13">
    <g id="line2d_16">
     <path d="M 422.803759 244.236344 
L 426.925369 245.231903 
" style="fill:none;stroke:#000000;stroke-linecap:square;stroke-width:0.8;"/>
    </g>
    <g id="text_16">
     <!-- 20 -->
     <g transform="translate(432.466016 255.917158)scale(0.18 -0.18)">
      <use xlink:href="#DejaVuSans-32"/>
      <use x="63.623047" xlink:href="#DejaVuSans-30"/>
     </g>
    </g>
   </g>
   <g id="xtick_14">
    <g id="line2d_17">
     <path d="M 424.197991 213.674211 
L 428.365535 214.647688 
" style="fill:none;stroke:#000000;stroke-linecap:square;stroke-width:0.8;"/>
    </g>
    <g id="text_17">
     <!-- 30 -->
     <g transform="translate(434.084159 225.399374)scale(0.18 -0.18)">
      <use xlink:href="#DejaVuSans-33"/>
      <use x="63.623047" xlink:href="#DejaVuSans-30"/>
     </g>
    </g>
   </g>
   <g id="xtick_15">
    <g id="line2d_18">
     <path d="M 425.622582 182.446615 
L 429.837094 183.396805 
" style="fill:none;stroke:#000000;stroke-linecap:square;stroke-width:0.8;"/>
    </g>
    <g id="text_18">
     <!-- 40 -->
     <g transform="translate(435.737459 194.218538)scale(0.18 -0.18)">
      <use xlink:href="#DejaVuSans-34"/>
      <use x="63.623047" xlink:href="#DejaVuSans-30"/>
     </g>
    </g>
   </g>
  </g>
  <g id="axes_1">
   <g id="Poly3DCollection_1">
    <path clip-path="url(#p2081cdbac2)" d="M 299.957245 250.332339 
L 328.690262 278.269298 
L 348.305771 261.312269 
L 320.002653 235.274398 
L 299.957245 250.332339 
z
" style="fill:#b6cefa;"/>
    <path clip-path="url(#p2081cdbac2)" d="M 271.1881 215.16554 
L 299.957245 250.332339 
L 320.002653 235.274398 
L 291.744005 202.612777 
L 271.1881 215.16554 
z
" style="fill:#f4c5ad;"/>
    <path clip-path="url(#p2081cdbac2)" d="M 328.690262 278.269298 
L 357.620404 298.55172 
L 376.859524 280.607565 
L 348.305771 261.312269 
L 328.690262 278.269298 
z
" style="fill:#7699f6;"/>
    <path clip-path="url(#p2081cdbac2)" d="M 242.298783 180.185028 
L 271.1881 215.16554 
L 291.744005 202.612777 
L 263.403879 170.012082 
L 242.298783 180.185028 
z
" style="fill:#d44e41;"/>
    <path clip-path="url(#p2081cdbac2)" d="M 357.620404 298.55172 
L 386.83742 315.817475 
L 405.698442 297.625984 
L 376.859524 280.607565 
L 357.620404 298.55172 
z
" style="fill:#4e68d8;"/>
    <path clip-path="url(#p2081cdbac2)" d="M 278.740825 266.400595 
L 307.94929 296.29447 
L 328.690262 278.269298 
L 299.957245 250.332339 
L 278.740825 266.400595 
z
" style="fill:#b3cdfb;"/>
    <path clip-path="url(#p2081cdbac2)" d="M 307.94929 296.29447 
L 337.283785 317.599296 
L 357.620404 298.55172 
L 328.690262 278.269298 
L 307.94929 296.29447 
z
" style="fill:#7093f3;"/>
    <path clip-path="url(#p2081cdbac2)" d="M 249.401342 228.659333 
L 278.740825 266.400595 
L 299.957245 250.332339 
L 271.1881 215.16554 
L 249.401342 228.659333 
z
" style="fill:#f5c0a7;"/>
    <path clip-path="url(#p2081cdbac2)" d="M 219.902917 191.230237 
L 249.401342 228.659333 
L 271.1881 215.16554 
L 242.298783 180.185028 
L 219.902917 191.230237 
z
" style="fill:#c83836;"/>
    <path clip-path="url(#p2081cdbac2)" d="M 337.283785 317.599296 
L 366.895781 335.117148 
L 386.83742 315.817475 
L 357.620404 298.55172 
L 337.283785 317.599296 
z
" style="fill:#485fd1;"/>
    <path clip-path="url(#p2081cdbac2)" d="M 256.789186 283.157235 
L 286.510941 315.008372 
L 307.94929 296.29447 
L 278.740825 266.400595 
L 256.789186 283.157235 
z
" style="fill:#b2ccfb;"/>
    <path clip-path="url(#p2081cdbac2)" d="M 286.510941 315.008372 
L 316.270175 337.344109 
L 337.283785 317.599296 
L 307.94929 296.29447 
L 286.510941 315.008372 
z
" style="fill:#6a8bef;"/>
    <path clip-path="url(#p2081cdbac2)" d="M 226.828659 242.850239 
L 256.789186 283.157235 
L 278.740825 266.400595 
L 249.401342 228.659333 
L 226.828659 242.850239 
z
" style="fill:#f6bda2;"/>
    <path clip-path="url(#p2081cdbac2)" d="M 316.270175 337.344109 
L 346.285128 355.116298 
L 366.895781 335.117148 
L 337.283785 317.599296 
L 316.270175 337.344109 
z
" style="fill:#4055c8;"/>
    <path clip-path="url(#p2081cdbac2)" d="M 196.671665 202.977429 
L 226.828659 242.850239 
L 249.401342 228.659333 
L 219.902917 191.230237 
L 196.671665 202.977429 
z
" style="fill:#be242e;"/>
    <path clip-path="url(#p2081cdbac2)" d="M 234.603963 300.217399 
L 264.865426 333.968552 
L 286.510941 315.008372 
L 256.789186 283.157235 
L 234.603963 300.217399 
z
" style="fill:#afcafc;"/>
    <path clip-path="url(#p2081cdbac2)" d="M 264.865426 333.968552 
L 295.060289 357.316146 
L 316.270175 337.344109 
L 286.510941 315.008372 
L 264.865426 333.968552 
z
" style="fill:#6384eb;"/>
    <path clip-path="url(#p2081cdbac2)" d="M 203.985875 257.430811 
L 234.603963 300.217399 
L 256.789186 283.157235 
L 226.828659 242.850239 
L 203.985875 257.430811 
z
" style="fill:#f7ba9f;"/>
    <path clip-path="url(#p2081cdbac2)" d="M 295.060289 357.316146 
L 325.476604 375.342363 
L 346.285128 355.116298 
L 316.270175 337.344109 
L 295.060289 357.316146 
z
" style="fill:#3b4cc0;"/>
    <path clip-path="url(#p2081cdbac2)" d="M 173.13625 215.19271 
L 203.985875 257.430811 
L 226.828659 242.850239 
L 196.671665 202.977429 
L 173.13625 215.19271 
z
" style="fill:#b40426;"/>
   </g>
   <g id="text_19">
    <!-- ANGLE MODEL -->
    <defs>
     <path d="M 34.1875 63.1875 
L 20.796875 26.90625 
L 47.609375 26.90625 
z
M 28.609375 72.90625 
L 39.796875 72.90625 
L 67.578125 0 
L 57.328125 0 
L 50.6875 18.703125 
L 17.828125 18.703125 
L 11.1875 0 
L 0.78125 0 
z
" id="DejaVuSans-41"/>
     <path d="M 9.8125 72.90625 
L 23.09375 72.90625 
L 55.421875 11.921875 
L 55.421875 72.90625 
L 64.984375 72.90625 
L 64.984375 0 
L 51.703125 0 
L 19.390625 60.984375 
L 19.390625 0 
L 9.8125 0 
z
" id="DejaVuSans-4e"/>
     <path d="M 59.515625 10.40625 
L 59.515625 29.984375 
L 43.40625 29.984375 
L 43.40625 38.09375 
L 69.28125 38.09375 
L 69.28125 6.78125 
Q 63.578125 2.734375 56.6875 0.65625 
Q 49.8125 -1.421875 42 -1.421875 
Q 24.90625 -1.421875 15.25 8.5625 
Q 5.609375 18.5625 5.609375 36.375 
Q 5.609375 54.25 15.25 64.234375 
Q 24.90625 74.21875 42 74.21875 
Q 49.125 74.21875 55.546875 72.453125 
Q 61.96875 70.703125 67.390625 67.28125 
L 67.390625 56.78125 
Q 61.921875 61.421875 55.765625 63.765625 
Q 49.609375 66.109375 42.828125 66.109375 
Q 29.4375 66.109375 22.71875 58.640625 
Q 16.015625 51.171875 16.015625 36.375 
Q 16.015625 21.625 22.71875 14.15625 
Q 29.4375 6.6875 42.828125 6.6875 
Q 48.046875 6.6875 52.140625 7.59375 
Q 56.25 8.5 59.515625 10.40625 
z
" id="DejaVuSans-47"/>
     <path d="M 9.8125 72.90625 
L 19.671875 72.90625 
L 19.671875 8.296875 
L 55.171875 8.296875 
L 55.171875 0 
L 9.8125 0 
z
" id="DejaVuSans-4c"/>
     <path d="M 9.8125 72.90625 
L 55.90625 72.90625 
L 55.90625 64.59375 
L 19.671875 64.59375 
L 19.671875 43.015625 
L 54.390625 43.015625 
L 54.390625 34.71875 
L 19.671875 34.71875 
L 19.671875 8.296875 
L 56.78125 8.296875 
L 56.78125 0 
L 9.8125 0 
z
" id="DejaVuSans-45"/>
     <path d="M 9.8125 72.90625 
L 24.515625 72.90625 
L 43.109375 23.296875 
L 61.8125 72.90625 
L 76.515625 72.90625 
L 76.515625 0 
L 66.890625 0 
L 66.890625 64.015625 
L 48.09375 14.015625 
L 38.1875 14.015625 
L 19.390625 64.015625 
L 19.390625 0 
L 9.8125 0 
z
" id="DejaVuSans-4d"/>
     <path d="M 39.40625 66.21875 
Q 28.65625 66.21875 22.328125 58.203125 
Q 16.015625 50.203125 16.015625 36.375 
Q 16.015625 22.609375 22.328125 14.59375 
Q 28.65625 6.59375 39.40625 6.59375 
Q 50.140625 6.59375 56.421875 14.59375 
Q 62.703125 22.609375 62.703125 36.375 
Q 62.703125 50.203125 56.421875 58.203125 
Q 50.140625 66.21875 39.40625 66.21875 
z
M 39.40625 74.21875 
Q 54.734375 74.21875 63.90625 63.9375 
Q 73.09375 53.65625 73.09375 36.375 
Q 73.09375 19.140625 63.90625 8.859375 
Q 54.734375 -1.421875 39.40625 -1.421875 
Q 24.03125 -1.421875 14.8125 8.828125 
Q 5.609375 19.09375 5.609375 36.375 
Q 5.609375 53.65625 14.8125 63.9375 
Q 24.03125 74.21875 39.40625 74.21875 
z
" id="DejaVuSans-4f"/>
     <path d="M 19.671875 64.796875 
L 19.671875 8.109375 
L 31.59375 8.109375 
Q 46.6875 8.109375 53.6875 14.9375 
Q 60.6875 21.78125 60.6875 36.53125 
Q 60.6875 51.171875 53.6875 57.984375 
Q 46.6875 64.796875 31.59375 64.796875 
z
M 9.8125 72.90625 
L 30.078125 72.90625 
Q 51.265625 72.90625 61.171875 64.09375 
Q 71.09375 55.28125 71.09375 36.53125 
Q 71.09375 17.671875 61.125 8.828125 
Q 51.171875 0 30.078125 0 
L 9.8125 0 
z
" id="DejaVuSans-44"/>
    </defs>
    <g transform="translate(209.570223 121.872)scale(0.216 -0.216)">
     <use xlink:href="#DejaVuSans-41"/>
     <use x="68.408203" xlink:href="#DejaVuSans-4e"/>
     <use x="143.212891" xlink:href="#DejaVuSans-47"/>
     <use x="220.703125" xlink:href="#DejaVuSans-4c"/>
     <use x="276.416016" xlink:href="#DejaVuSans-45"/>
     <use x="339.599609" xlink:href="#DejaVuSans-20"/>
     <use x="371.386719" xlink:href="#DejaVuSans-4d"/>
     <use x="457.666016" xlink:href="#DejaVuSans-4f"/>
     <use x="536.376953" xlink:href="#DejaVuSans-44"/>
     <use x="613.378906" xlink:href="#DejaVuSans-45"/>
     <use x="676.5625" xlink:href="#DejaVuSans-4c"/>
    </g>
   </g>
  </g>
  <g id="patch_6">
   <path d="M 482.523429 406.08 
L 829.44 406.08 
L 829.44 103.68 
L 482.523429 103.68 
z
" style="fill:#ffffff;"/>
  </g>
  <g id="pane3d_4">
   <g id="patch_7">
    <path d="M 528.512581 339.260257 
L 627.801919 265.118629 
L 626.148857 123.446147 
L 521.323488 190.060875 
" style="fill:#f2f2f2;opacity:0.5;stroke:#f2f2f2;stroke-linejoin:miter;"/>
   </g>
  </g>
  <g id="pane3d_5">
   <g id="patch_8">
    <path d="M 627.801919 265.118629 
L 788.641311 306.568584 
L 795.370639 160.624025 
L 626.148857 123.446147 
" style="fill:#e6e6e6;opacity:0.5;stroke:#e6e6e6;stroke-linejoin:miter;"/>
   </g>
  </g>
  <g id="pane3d_6">
   <g id="patch_9">
    <path d="M 528.512581 339.260257 
L 697.737355 387.535483 
L 788.641311 306.568584 
L 627.801919 265.118629 
" style="fill:#ececec;opacity:0.5;stroke:#ececec;stroke-linejoin:miter;"/>
   </g>
  </g>
  <g id="axis3d_4">
   <g id="line2d_19">
    <path d="M 528.512581 339.260257 
L 697.737355 387.535483 
" style="fill:none;stroke:#000000;stroke-linecap:square;stroke-width:0.8;"/>
   </g>
   <g id="text_20">
    <!-- wrist angle -->
    <g transform="translate(534.651447 416.230214)rotate(-344.077993)scale(0.18 -0.18)">
     <use xlink:href="#DejaVuSans-77"/>
     <use x="81.787109" xlink:href="#DejaVuSans-72"/>
     <use x="122.900391" xlink:href="#DejaVuSans-69"/>
     <use x="150.683594" xlink:href="#DejaVuSans-73"/>
     <use x="202.783203" xlink:href="#DejaVuSans-74"/>
     <use x="241.992188" xlink:href="#DejaVuSans-20"/>
     <use x="273.779297" xlink:href="#DejaVuSans-61"/>
     <use x="335.058594" xlink:href="#DejaVuSans-6e"/>
     <use x="398.4375" xlink:href="#DejaVuSans-67"/>
     <use x="461.914062" xlink:href="#DejaVuSans-6c"/>
     <use x="489.697266" xlink:href="#DejaVuSans-65"/>
    </g>
   </g>
   <g id="Line3DCollection_4">
    <path d="M 538.829616 342.203427 
L 637.638654 267.653656 
L 636.477102 125.715253 
" style="fill:none;stroke:#b0b0b0;stroke-width:0.8;"/>
    <path d="M 567.011356 350.242911 
L 664.487898 274.572981 
L 664.681919 131.911827 
" style="fill:none;stroke:#b0b0b0;stroke-width:0.8;"/>
    <path d="M 596.702987 358.713126 
L 692.743188 281.854658 
L 694.385916 138.437769 
" style="fill:none;stroke:#b0b0b0;stroke-width:0.8;"/>
    <path d="M 625.794451 367.012129 
L 720.3951 288.980838 
L 723.477614 144.82919 
" style="fill:none;stroke:#b0b0b0;stroke-width:0.8;"/>
    <path d="M 656.452345 375.757993 
L 749.501453 296.481842 
L 754.123035 151.561962 
" style="fill:none;stroke:#b0b0b0;stroke-width:0.8;"/>
    <path d="M 686.498304 384.329288 
L 777.992573 303.824295 
L 784.144114 158.157567 
" style="fill:none;stroke:#b0b0b0;stroke-width:0.8;"/>
   </g>
   <g id="xtick_16">
    <g id="line2d_20">
     <path d="M 539.680907 341.561142 
L 537.123859 343.490392 
" style="fill:none;stroke:#000000;stroke-linecap:square;stroke-width:0.8;"/>
    </g>
    <g id="text_21">
     <!-- -0.97 -->
     <g transform="translate(521.549586 389.651922)rotate(-41)scale(0.18 -0.18)">
      <use xlink:href="#DejaVuSans-2d"/>
      <use x="36.083984" xlink:href="#DejaVuSans-30"/>
      <use x="99.707031" xlink:href="#DejaVuSans-2e"/>
      <use x="131.494141" xlink:href="#DejaVuSans-39"/>
      <use x="195.117188" xlink:href="#DejaVuSans-37"/>
     </g>
    </g>
   </g>
   <g id="xtick_17">
    <g id="line2d_21">
     <path d="M 567.851632 349.590614 
L 565.327645 351.549956 
" style="fill:none;stroke:#000000;stroke-linecap:square;stroke-width:0.8;"/>
    </g>
    <g id="text_22">
     <!-- -0.7 -->
     <g transform="translate(554.051683 390.235174)rotate(-41)scale(0.18 -0.18)">
      <use xlink:href="#DejaVuSans-2d"/>
      <use x="36.083984" xlink:href="#DejaVuSans-30"/>
      <use x="99.707031" xlink:href="#DejaVuSans-2e"/>
      <use x="131.494141" xlink:href="#DejaVuSans-37"/>
     </g>
    </g>
   </g>
   <g id="xtick_18">
    <g id="line2d_22">
     <path d="M 597.531365 358.050196 
L 595.043092 360.041496 
" style="fill:none;stroke:#000000;stroke-linecap:square;stroke-width:0.8;"/>
    </g>
    <g id="text_23">
     <!-- -0.42 -->
     <g transform="translate(579.420652 406.279363)rotate(-41)scale(0.18 -0.18)">
      <use xlink:href="#DejaVuSans-2d"/>
      <use x="36.083984" xlink:href="#DejaVuSans-30"/>
      <use x="99.707031" xlink:href="#DejaVuSans-2e"/>
      <use x="131.494141" xlink:href="#DejaVuSans-34"/>
      <use x="195.117188" xlink:href="#DejaVuSans-32"/>
     </g>
    </g>
   </g>
   <g id="xtick_19">
    <g id="line2d_23">
     <path d="M 626.610879 366.338699 
L 624.158477 368.361561 
" style="fill:none;stroke:#000000;stroke-linecap:square;stroke-width:0.8;"/>
    </g>
    <g id="text_24">
     <!-- -0.15 -->
     <g transform="translate(608.511491 414.637705)rotate(-41)scale(0.18 -0.18)">
      <use xlink:href="#DejaVuSans-2d"/>
      <use x="36.083984" xlink:href="#DejaVuSans-30"/>
      <use x="99.707031" xlink:href="#DejaVuSans-2e"/>
      <use x="131.494141" xlink:href="#DejaVuSans-31"/>
      <use x="195.117188" xlink:href="#DejaVuSans-35"/>
     </g>
    </g>
   </g>
   <g id="xtick_20">
    <g id="line2d_24">
     <path d="M 657.255866 375.073407 
L 654.842208 377.1298 
" style="fill:none;stroke:#000000;stroke-linecap:square;stroke-width:0.8;"/>
    </g>
    <g id="text_25">
     <!-- 0.13 -->
     <g transform="translate(641.619679 419.185725)rotate(-41)scale(0.18 -0.18)">
      <use xlink:href="#DejaVuSans-30"/>
      <use x="63.623047" xlink:href="#DejaVuSans-2e"/>
      <use x="95.410156" xlink:href="#DejaVuSans-31"/>
      <use x="159.033203" xlink:href="#DejaVuSans-33"/>
     </g>
    </g>
   </g>
   <g id="xtick_21">
    <g id="line2d_25">
     <path d="M 687.288865 383.633681 
L 684.914114 385.723202 
" style="fill:none;stroke:#000000;stroke-linecap:square;stroke-width:0.8;"/>
    </g>
    <g id="text_26">
     <!-- 0.4 -->
     <g transform="translate(675.987412 420.30501)rotate(-41)scale(0.18 -0.18)">
      <use xlink:href="#DejaVuSans-30"/>
      <use x="63.623047" xlink:href="#DejaVuSans-2e"/>
      <use x="95.410156" xlink:href="#DejaVuSans-34"/>
     </g>
    </g>
   </g>
  </g>
  <g id="axis3d_5">
   <g id="line2d_26">
    <path d="M 788.641311 306.568584 
L 697.737355 387.535483 
" style="fill:none;stroke:#000000;stroke-linecap:square;stroke-width:0.8;"/>
   </g>
   <g id="text_27">
    <!-- right dx -->
    <g transform="translate(757.804075 412.611508)rotate(-41.691014)scale(0.18 -0.18)">
     <use xlink:href="#DejaVuSans-72"/>
     <use x="41.113281" xlink:href="#DejaVuSans-69"/>
     <use x="68.896484" xlink:href="#DejaVuSans-67"/>
     <use x="132.373047" xlink:href="#DejaVuSans-68"/>
     <use x="195.751953" xlink:href="#DejaVuSans-74"/>
     <use x="234.960938" xlink:href="#DejaVuSans-20"/>
     <use x="266.748047" xlink:href="#DejaVuSans-64"/>
     <use x="330.224609" xlink:href="#DejaVuSans-78"/>
    </g>
   </g>
   <g id="Line3DCollection_5">
    <path d="M 528.501232 185.499541 
L 535.286599 334.201943 
L 703.958688 381.994227 
" style="fill:none;stroke:#b0b0b0;stroke-width:0.8;"/>
    <path d="M 562.221327 164.070998 
L 567.158437 310.402509 
L 733.191917 355.956594 
" style="fill:none;stroke:#b0b0b0;stroke-width:0.8;"/>
    <path d="M 589.089749 146.996575 
L 592.61143 291.396175 
L 756.492522 335.203066 
" style="fill:none;stroke:#b0b0b0;stroke-width:0.8;"/>
    <path d="M 619.951646 127.384368 
L 621.91042 269.517946 
L 783.264365 311.357756 
" style="fill:none;stroke:#b0b0b0;stroke-width:0.8;"/>
   </g>
   <g id="xtick_22">
    <g id="line2d_27">
     <path d="M 702.547051 381.594248 
L 706.785117 382.79508 
" style="fill:none;stroke:#000000;stroke-linecap:square;stroke-width:0.8;"/>
    </g>
    <g id="text_28">
     <!-- 0.0 -->
     <g transform="translate(697.086611 404.431733)rotate(-345)scale(0.18 -0.18)">
      <use xlink:href="#DejaVuSans-30"/>
      <use x="63.623047" xlink:href="#DejaVuSans-2e"/>
      <use x="95.410156" xlink:href="#DejaVuSans-30"/>
     </g>
    </g>
   </g>
   <g id="xtick_23">
    <g id="line2d_28">
     <path d="M 731.803847 355.575753 
L 735.971084 356.719105 
" style="fill:none;stroke:#000000;stroke-linecap:square;stroke-width:0.8;"/>
    </g>
    <g id="text_29">
     <!-- 0.06 -->
     <g transform="translate(720.579503 378.179337)rotate(-345)scale(0.18 -0.18)">
      <use xlink:href="#DejaVuSans-30"/>
      <use x="63.623047" xlink:href="#DejaVuSans-2e"/>
      <use x="95.410156" xlink:href="#DejaVuSans-30"/>
      <use x="159.033203" xlink:href="#DejaVuSans-36"/>
     </g>
    </g>
   </g>
   <g id="xtick_24">
    <g id="line2d_29">
     <path d="M 755.123614 334.837145 
L 759.233265 335.935692 
" style="fill:none;stroke:#000000;stroke-linecap:square;stroke-width:0.8;"/>
    </g>
    <g id="text_30">
     <!-- 0.11 -->
     <g transform="translate(743.713703 357.254322)rotate(-345)scale(0.18 -0.18)">
      <use xlink:href="#DejaVuSans-30"/>
      <use x="63.623047" xlink:href="#DejaVuSans-2e"/>
      <use x="95.410156" xlink:href="#DejaVuSans-31"/>
      <use x="159.033203" xlink:href="#DejaVuSans-31"/>
     </g>
    </g>
   </g>
   <g id="xtick_25">
    <g id="line2d_30">
     <path d="M 781.917887 311.008608 
L 785.960132 312.056781 
" style="fill:none;stroke:#000000;stroke-linecap:square;stroke-width:0.8;"/>
    </g>
    <g id="text_31">
     <!-- 0.17 -->
     <g transform="translate(770.294726 333.211636)rotate(-345)scale(0.18 -0.18)">
      <use xlink:href="#DejaVuSans-30"/>
      <use x="63.623047" xlink:href="#DejaVuSans-2e"/>
      <use x="95.410156" xlink:href="#DejaVuSans-31"/>
      <use x="159.033203" xlink:href="#DejaVuSans-37"/>
     </g>
    </g>
   </g>
  </g>
  <g id="axis3d_6">
   <g id="line2d_31">
    <path d="M 788.641311 306.568584 
L 795.370639 160.624025 
" style="fill:none;stroke:#000000;stroke-linecap:square;stroke-width:0.8;"/>
   </g>
   <g id="text_32">
    <!-- [cm] -->
    <defs>
     <path d="M 48.78125 52.59375 
L 48.78125 44.1875 
Q 44.96875 46.296875 41.140625 47.34375 
Q 37.3125 48.390625 33.40625 48.390625 
Q 24.65625 48.390625 19.8125 42.84375 
Q 14.984375 37.3125 14.984375 27.296875 
Q 14.984375 17.28125 19.8125 11.734375 
Q 24.65625 6.203125 33.40625 6.203125 
Q 37.3125 6.203125 41.140625 7.25 
Q 44.96875 8.296875 48.78125 10.40625 
L 48.78125 2.09375 
Q 45.015625 0.34375 40.984375 -0.53125 
Q 36.96875 -1.421875 32.421875 -1.421875 
Q 20.0625 -1.421875 12.78125 6.34375 
Q 5.515625 14.109375 5.515625 27.296875 
Q 5.515625 40.671875 12.859375 48.328125 
Q 20.21875 56 33.015625 56 
Q 37.15625 56 41.109375 55.140625 
Q 45.0625 54.296875 48.78125 52.59375 
z
" id="DejaVuSans-63"/>
     <path d="M 52 44.1875 
Q 55.375 50.25 60.0625 53.125 
Q 64.75 56 71.09375 56 
Q 79.640625 56 84.28125 50.015625 
Q 88.921875 44.046875 88.921875 33.015625 
L 88.921875 0 
L 79.890625 0 
L 79.890625 32.71875 
Q 79.890625 40.578125 77.09375 44.375 
Q 74.3125 48.1875 68.609375 48.1875 
Q 61.625 48.1875 57.5625 43.546875 
Q 53.515625 38.921875 53.515625 30.90625 
L 53.515625 0 
L 44.484375 0 
L 44.484375 32.71875 
Q 44.484375 40.625 41.703125 44.40625 
Q 38.921875 48.1875 33.109375 48.1875 
Q 26.21875 48.1875 22.15625 43.53125 
Q 18.109375 38.875 18.109375 30.90625 
L 18.109375 0 
L 9.078125 0 
L 9.078125 54.6875 
L 18.109375 54.6875 
L 18.109375 46.1875 
Q 21.1875 51.21875 25.484375 53.609375 
Q 29.78125 56 35.6875 56 
Q 41.65625 56 45.828125 52.96875 
Q 50 49.953125 52 44.1875 
z
" id="DejaVuSans-6d"/>
    </defs>
    <g transform="translate(846.96638 250.355274)rotate(-90)scale(0.18 -0.18)">
     <use xlink:href="#DejaVuSans-5b"/>
     <use x="39.013672" xlink:href="#DejaVuSans-63"/>
     <use x="93.994141" xlink:href="#DejaVuSans-6d"/>
     <use x="191.40625" xlink:href="#DejaVuSans-5d"/>
    </g>
   </g>
   <g id="Line3DCollection_6">
    <path d="M 788.769302 303.79274 
L 627.77041 262.418275 
L 528.376076 336.427295 
" style="fill:none;stroke:#b0b0b0;stroke-width:0.8;"/>
    <path d="M 790.325404 270.044254 
L 627.387545 229.605501 
L 526.715747 301.969539 
" style="fill:none;stroke:#b0b0b0;stroke-width:0.8;"/>
    <path d="M 791.919777 235.46576 
L 626.995663 196.020017 
L 525.013214 266.635878 
" style="fill:none;stroke:#b0b0b0;stroke-width:0.8;"/>
    <path d="M 793.553849 200.026256 
L 626.594442 161.634205 
L 523.266845 230.392485 
" style="fill:none;stroke:#b0b0b0;stroke-width:0.8;"/>
    <path d="M 795.229124 163.693177 
L 626.183546 126.419112 
L 521.474926 193.203766 
" style="fill:none;stroke:#b0b0b0;stroke-width:0.8;"/>
   </g>
   <g id="xtick_26">
    <g id="line2d_32">
     <path d="M 787.425996 303.447529 
L 791.458708 304.483879 
" style="fill:none;stroke:#000000;stroke-linecap:square;stroke-width:0.8;"/>
    </g>
    <g id="text_33">
     <!-- 150 -->
     <g transform="translate(793.894634 314.674602)scale(0.18 -0.18)">
      <use xlink:href="#DejaVuSans-31"/>
      <use x="63.623047" xlink:href="#DejaVuSans-35"/>
      <use x="127.246094" xlink:href="#DejaVuSans-30"/>
     </g>
    </g>
   </g>
   <g id="xtick_27">
    <g id="line2d_33">
     <path d="M 788.96524 269.706682 
L 793.048595 270.72011 
" style="fill:none;stroke:#000000;stroke-linecap:square;stroke-width:0.8;"/>
    </g>
    <g id="text_34">
     <!-- 200 -->
     <g transform="translate(795.716491 280.98805)scale(0.18 -0.18)">
      <use xlink:href="#DejaVuSans-32"/>
      <use x="63.623047" xlink:href="#DejaVuSans-30"/>
      <use x="127.246094" xlink:href="#DejaVuSans-30"/>
     </g>
    </g>
   </g>
   <g id="xtick_28">
    <g id="line2d_34">
     <path d="M 790.542327 235.136308 
L 794.677611 236.125365 
" style="fill:none;stroke:#000000;stroke-linecap:square;stroke-width:0.8;"/>
    </g>
    <g id="text_35">
     <!-- 250 -->
     <g transform="translate(797.583026 246.475393)scale(0.18 -0.18)">
      <use xlink:href="#DejaVuSans-32"/>
      <use x="63.623047" xlink:href="#DejaVuSans-35"/>
      <use x="127.246094" xlink:href="#DejaVuSans-30"/>
     </g>
    </g>
   </g>
   <g id="xtick_29">
    <g id="line2d_35">
     <path d="M 792.15867 199.705436 
L 796.347219 200.668587 
" style="fill:none;stroke:#000000;stroke-linecap:square;stroke-width:0.8;"/>
    </g>
    <g id="text_36">
     <!-- 300 -->
     <g transform="translate(799.495903 211.105865)scale(0.18 -0.18)">
      <use xlink:href="#DejaVuSans-33"/>
      <use x="63.623047" xlink:href="#DejaVuSans-30"/>
      <use x="127.246094" xlink:href="#DejaVuSans-30"/>
     </g>
    </g>
   </g>
   <g id="xtick_30">
    <g id="line2d_36">
     <path d="M 793.815752 163.381533 
L 798.058956 164.317147 
" style="fill:none;stroke:#000000;stroke-linecap:square;stroke-width:0.8;"/>
    </g>
    <g id="text_37">
     <!-- 350 -->
     <g transform="translate(801.456869 174.847154)scale(0.18 -0.18)">
      <use xlink:href="#DejaVuSans-33"/>
      <use x="63.623047" xlink:href="#DejaVuSans-35"/>
      <use x="127.246094" xlink:href="#DejaVuSans-30"/>
     </g>
    </g>
   </g>
  </g>
  <g id="axes_2">
   <g id="Poly3DCollection_2">
    <path clip-path="url(#p9b3d1f4474)" d="M 610.375266 222.992561 
L 638.274224 184.463096 
L 659.045729 163.61085 
L 631.092181 205.496975 
L 610.375266 222.992561 
z
" style="fill:#ecd3c5;"/>
    <path clip-path="url(#p9b3d1f4474)" d="M 588.512051 241.83615 
L 616.390488 206.954431 
L 638.274224 184.463096 
L 610.375266 222.992561 
L 588.512051 241.83615 
z
" style="fill:#e0dbd8;"/>
    <path clip-path="url(#p9b3d1f4474)" d="M 638.274224 184.463096 
L 667.451351 177.225925 
L 688.113954 151.134681 
L 659.045729 163.61085 
L 638.274224 184.463096 
z
" style="fill:#ca3b37;"/>
    <path clip-path="url(#p9b3d1f4474)" d="M 667.451351 177.225925 
L 697.048453 196.184744 
L 717.523881 164.071521 
L 688.113954 151.134681 
L 667.451351 177.225925 
z
" style="fill:#b40426;"/>
    <path clip-path="url(#p9b3d1f4474)" d="M 565.965271 261.650219 
L 593.865182 230.604385 
L 616.390488 206.954431 
L 588.512051 241.83615 
L 565.965271 261.650219 
z
" style="fill:#d2dbe8;"/>
    <path clip-path="url(#p9b3d1f4474)" d="M 697.048453 196.184744 
L 726.754959 220.119331 
L 747.094558 182.939926 
L 717.523881 164.071521 
L 697.048453 196.184744 
z
" style="fill:#dd5f4b;"/>
    <path clip-path="url(#p9b3d1f4474)" d="M 616.390488 206.954431 
L 645.746744 205.192356 
L 667.451351 177.225925 
L 638.274224 184.463096 
L 616.390488 206.954431 
z
" style="fill:#e57058;"/>
    <path clip-path="url(#p9b3d1f4474)" d="M 726.754959 220.119331 
L 756.95791 233.05911 
L 777.236794 193.169558 
L 747.094558 182.939926 
L 726.754959 220.119331 
z
" style="fill:#f39577;"/>
    <path clip-path="url(#p9b3d1f4474)" d="M 645.746744 205.192356 
L 675.618653 230.302994 
L 697.048453 196.184744 
L 667.451351 177.225925 
L 645.746744 205.192356 
z
" style="fill:#e46e56;"/>
    <path clip-path="url(#p9b3d1f4474)" d="M 675.618653 230.302994 
L 705.532841 259.36193 
L 726.754959 220.119331 
L 697.048453 196.184744 
L 675.618653 230.302994 
z
" style="fill:#f7b89c;"/>
    <path clip-path="url(#p9b3d1f4474)" d="M 543.259582 281.965536 
L 571.226745 254.821244 
L 593.865182 230.604385 
L 565.965271 261.650219 
L 543.259582 281.965536 
z
" style="fill:#c0d4f5;"/>
    <path clip-path="url(#p9b3d1f4474)" d="M 705.532841 259.36193 
L 735.827305 275.058999 
L 756.95791 233.05911 
L 726.754959 220.119331 
L 705.532841 259.36193 
z
" style="fill:#dfdbd9;"/>
    <path clip-path="url(#p9b3d1f4474)" d="M 593.865182 230.604385 
L 623.475534 234.381914 
L 645.746744 205.192356 
L 616.390488 206.954431 
L 593.865182 230.604385 
z
" style="fill:#f59d7e;"/>
    <path clip-path="url(#p9b3d1f4474)" d="M 623.475534 234.381914 
L 653.712245 265.572022 
L 675.618653 230.302994 
L 645.746744 205.192356 
L 623.475534 234.381914 
z
" style="fill:#f7b093;"/>
    <path clip-path="url(#p9b3d1f4474)" d="M 653.712245 265.572022 
L 683.908489 299.643183 
L 705.532841 259.36193 
L 675.618653 230.302994 
L 653.712245 265.572022 
z
" style="fill:#cfdaea;"/>
    <path clip-path="url(#p9b3d1f4474)" d="M 683.908489 299.643183 
L 714.32804 318.055687 
L 735.827305 275.058999 
L 705.532841 259.36193 
L 683.908489 299.643183 
z
" style="fill:#8fb1fe;"/>
    <path clip-path="url(#p9b3d1f4474)" d="M 571.226745 254.821244 
L 601.163121 264.024979 
L 623.475534 234.381914 
L 593.865182 230.604385 
L 571.226745 254.821244 
z
" style="fill:#f5c1a9;"/>
    <path clip-path="url(#p9b3d1f4474)" d="M 631.847465 301.029013 
L 662.394708 339.843724 
L 683.908489 299.643183 
L 653.712245 265.572022 
L 631.847465 301.029013 
z
" style="fill:#88abfd;"/>
    <path clip-path="url(#p9b3d1f4474)" d="M 662.394708 339.843724 
L 692.972111 360.84649 
L 714.32804 318.055687 
L 683.908489 299.643183 
L 662.394708 339.843724 
z
" style="fill:#3b4cc0;"/>
    <path clip-path="url(#p9b3d1f4474)" d="M 601.163121 264.024979 
L 631.847465 301.029013 
L 653.712245 265.572022 
L 623.475534 234.381914 
L 601.163121 264.024979 
z
" style="fill:#e3d9d3;"/>
   </g>
   <g id="text_38">
    <!-- DISTANCE MODEL -->
    <defs>
     <path d="M 9.8125 72.90625 
L 19.671875 72.90625 
L 19.671875 0 
L 9.8125 0 
z
" id="DejaVuSans-49"/>
     <path d="M 53.515625 70.515625 
L 53.515625 60.890625 
Q 47.90625 63.578125 42.921875 64.890625 
Q 37.9375 66.21875 33.296875 66.21875 
Q 25.25 66.21875 20.875 63.09375 
Q 16.5 59.96875 16.5 54.203125 
Q 16.5 49.359375 19.40625 46.890625 
Q 22.3125 44.4375 30.421875 42.921875 
L 36.375 41.703125 
Q 47.40625 39.59375 52.65625 34.296875 
Q 57.90625 29 57.90625 20.125 
Q 57.90625 9.515625 50.796875 4.046875 
Q 43.703125 -1.421875 29.984375 -1.421875 
Q 24.8125 -1.421875 18.96875 -0.25 
Q 13.140625 0.921875 6.890625 3.21875 
L 6.890625 13.375 
Q 12.890625 10.015625 18.65625 8.296875 
Q 24.421875 6.59375 29.984375 6.59375 
Q 38.421875 6.59375 43.015625 9.90625 
Q 47.609375 13.234375 47.609375 19.390625 
Q 47.609375 24.75 44.3125 27.78125 
Q 41.015625 30.8125 33.5 32.328125 
L 27.484375 33.5 
Q 16.453125 35.6875 11.515625 40.375 
Q 6.59375 45.0625 6.59375 53.421875 
Q 6.59375 63.09375 13.40625 68.65625 
Q 20.21875 74.21875 32.171875 74.21875 
Q 37.3125 74.21875 42.625 73.28125 
Q 47.953125 72.359375 53.515625 70.515625 
z
" id="DejaVuSans-53"/>
     <path d="M -0.296875 72.90625 
L 61.375 72.90625 
L 61.375 64.59375 
L 35.5 64.59375 
L 35.5 0 
L 25.59375 0 
L 25.59375 64.59375 
L -0.296875 64.59375 
z
" id="DejaVuSans-54"/>
     <path d="M 64.40625 67.28125 
L 64.40625 56.890625 
Q 59.421875 61.53125 53.78125 63.8125 
Q 48.140625 66.109375 41.796875 66.109375 
Q 29.296875 66.109375 22.65625 58.46875 
Q 16.015625 50.828125 16.015625 36.375 
Q 16.015625 21.96875 22.65625 14.328125 
Q 29.296875 6.6875 41.796875 6.6875 
Q 48.140625 6.6875 53.78125 8.984375 
Q 59.421875 11.28125 64.40625 15.921875 
L 64.40625 5.609375 
Q 59.234375 2.09375 53.4375 0.328125 
Q 47.65625 -1.421875 41.21875 -1.421875 
Q 24.65625 -1.421875 15.125 8.703125 
Q 5.609375 18.84375 5.609375 36.375 
Q 5.609375 53.953125 15.125 64.078125 
Q 24.65625 74.21875 41.21875 74.21875 
Q 47.75 74.21875 53.53125 72.484375 
Q 59.328125 70.75 64.40625 67.28125 
z
" id="DejaVuSans-43"/>
    </defs>
    <g transform="translate(558.795214 121.872)scale(0.216 -0.216)">
     <use xlink:href="#DejaVuSans-44"/>
     <use x="77.001953" xlink:href="#DejaVuSans-49"/>
     <use x="106.494141" xlink:href="#DejaVuSans-53"/>
     <use x="169.970703" xlink:href="#DejaVuSans-54"/>
     <use x="230.945312" xlink:href="#DejaVuSans-41"/>
     <use x="299.353516" xlink:href="#DejaVuSans-4e"/>
     <use x="374.158203" xlink:href="#DejaVuSans-43"/>
     <use x="443.982422" xlink:href="#DejaVuSans-45"/>
     <use x="507.166016" xlink:href="#DejaVuSans-20"/>
     <use x="538.953125" xlink:href="#DejaVuSans-4d"/>
     <use x="625.232422" xlink:href="#DejaVuSans-4f"/>
     <use x="703.943359" xlink:href="#DejaVuSans-44"/>
     <use x="780.945312" xlink:href="#DejaVuSans-45"/>
     <use x="844.128906" xlink:href="#DejaVuSans-4c"/>
    </g>
   </g>
  </g>
 </g>
 <defs>
  <clipPath id="p2081cdbac2">
   <rect height="302.4" width="346.916571" x="115.2" y="103.68"/>
  </clipPath>
  <clipPath id="p9b3d1f4474">
   <rect height="302.4" width="346.916571" x="482.523429" y="103.68"/>
  </clipPath>
 </defs>
</svg>
